<svg xmlns="http://www.w3.org/2000/svg" xmlns:xlink="http://www.w3.org/1999/xlink" viewBox="0,0,256,256" width="24px" height="24px" fill-rule="nonzero"><g fill="#007848" fill-rule="nonzero" stroke="none" stroke-width="1" stroke-linecap="butt" stroke-linejoin="miter" stroke-miterlimit="10" stroke-dasharray="" stroke-dashoffset="0" font-family="none" font-weight="none" font-size="none" text-anchor="none" style="mix-blend-mode: normal"><g transform="scale(10.66667,10.66667)"><path d="M20.487,6.687l-2.872,-3.191c-0.596,-0.662 -1.634,-0.662 -2.23,0l-2.642,2.935c-0.397,0.441 -1.089,0.441 -1.487,0l-2.641,-2.934c-0.596,-0.662 -1.634,-0.662 -2.23,0l-2.872,3.19c-0.33,0.367 -0.513,0.844 -0.513,1.338v10.975c0,1.105 0.895,2 2,2h14c1.105,0 2,-0.895 2,-2v-10.975c0,-0.494 -0.183,-0.971 -0.513,-1.338zM6,19c-0.552,0 -1,-0.448 -1,-1c0,-0.552 0.448,-1 1,-1c0.552,0 1,0.448 1,1c0,0.552 -0.448,1 -1,1zM6,15c-0.552,0 -1,-0.448 -1,-1c0,-0.552 0.448,-1 1,-1c0.552,0 1,0.448 1,1c0,0.552 -0.448,1 -1,1zM6,11c-0.552,0 -1,-0.448 -1,-1c0,-0.552 0.448,-1 1,-1c0.552,0 1,0.448 1,1c0,0.552 -0.448,1 -1,1zM10,19c-0.552,0 -1,-0.448 -1,-1c0,-0.552 0.448,-1 1,-1c0.552,0 1,0.448 1,1c0,0.552 -0.448,1 -1,1zM10,15c-0.552,0 -1,-0.448 -1,-1c0,-0.552 0.448,-1 1,-1c0.552,0 1,0.448 1,1c0,0.552 -0.448,1 -1,1zM10,11c-0.552,0 -1,-0.448 -1,-1c0,-0.552 0.448,-1 1,-1c0.552,0 1,0.448 1,1c0,0.552 -0.448,1 -1,1zM14,19c-0.552,0 -1,-0.448 -1,-1c0,-0.552 0.448,-1 1,-1c0.552,0 1,0.448 1,1c0,0.552 -0.448,1 -1,1zM14,15c-0.552,0 -1,-0.448 -1,-1c0,-0.552 0.448,-1 1,-1c0.552,0 1,0.448 1,1c0,0.552 -0.448,1 -1,1zM14,11c-0.552,0 -1,-0.448 -1,-1c0,-0.552 0.448,-1 1,-1c0.552,0 1,0.448 1,1c0,0.552 -0.448,1 -1,1zM18,19c-0.552,0 -1,-0.448 -1,-1c0,-0.552 0.448,-1 1,-1c0.552,0 1,0.448 1,1c0,0.552 -0.448,1 -1,1zM18,15c-0.552,0 -1,-0.448 -1,-1c0,-0.552 0.448,-1 1,-1c0.552,0 1,0.448 1,1c0,0.552 -0.448,1 -1,1zM18,11c-0.552,0 -1,-0.448 -1,-1c0,-0.552 0.448,-1 1,-1c0.552,0 1,0.448 1,1c0,0.552 -0.448,1 -1,1z"></path></g></g></svg>