<svg xmlns="http://www.w3.org/2000/svg" xmlns:xlink="http://www.w3.org/1999/xlink" viewBox="0,0,256,256" width="24px" height="24px" fill-rule="nonzero"><g fill="#007848" fill-rule="nonzero" stroke="none" stroke-width="1" stroke-linecap="butt" stroke-linejoin="miter" stroke-miterlimit="10" stroke-dasharray="" stroke-dashoffset="0" font-family="none" font-weight="none" font-size="none" text-anchor="none" style="mix-blend-mode: normal"><g transform="scale(10.66667,10.66667)"><path d="M20.329,9.153l-7,-6.222c-0.758,-0.674 -1.9,-0.674 -2.657,0l-7,6.222c-0.428,0.38 -0.672,0.924 -0.672,1.495v9.352c0,0.552 0.448,1 1,1h2c0.552,0 1,-0.448 1,-1v-4c0,-0.552 0.448,-1 1,-1h2c0.552,0 1,0.448 1,1v4c0,0.552 0.448,1 1,1h8c0.552,0 1,-0.448 1,-1v-9.352c0,-0.571 -0.244,-1.115 -0.671,-1.495zM18,16c0,0.552 -0.448,1 -1,1h-2c-0.552,0 -1,-0.448 -1,-1v-2c0,-0.552 0.448,-1 1,-1h2c0.552,0 1,0.448 1,1z"></path></g></g></svg>