<svg xmlns="http://www.w3.org/2000/svg" xmlns:xlink="http://www.w3.org/1999/xlink" viewBox="0,0,256,256" width="24px" height="24px" fill-rule="nonzero"><g fill="#007848" fill-rule="nonzero" stroke="none" stroke-width="1" stroke-linecap="butt" stroke-linejoin="miter" stroke-miterlimit="10" stroke-dasharray="" stroke-dashoffset="0" font-family="none" font-weight="none" font-size="none" text-anchor="none" style="mix-blend-mode: normal"><g transform="scale(10.66667,10.66667)"><path d="M19.553,3.157l-3.812,1.906c-0.474,0.237 -1.024,0.276 -1.527,0.109l-4.157,-1.386c-0.657,-0.219 -1.381,-0.082 -1.913,0.361l-4.424,3.687c-0.456,0.38 -0.72,0.943 -0.72,1.537v9.629c0,1.105 0.895,2 2,2h14c1.105,0 2,-0.895 2,-2v-14.948c0,-0.744 -0.782,-1.227 -1.447,-0.895zM19,18c0,0.552 -0.448,1 -1,1h-12c-0.552,0 -1,-0.448 -1,-1v-4.6c0,-0.351 0.184,-0.677 0.486,-0.857l4,-2.4c0.317,-0.19 0.712,-0.19 1.029,0l4.13,2.478c0.227,0.136 0.5,0.177 0.757,0.113l2.356,-0.589c0.631,-0.158 1.243,0.32 1.243,0.97v4.885z"></path></g></g></svg>