<svg xmlns="http://www.w3.org/2000/svg" xmlns:xlink="http://www.w3.org/1999/xlink" viewBox="0,0,256,256" width="24px" height="24px" fill-rule="nonzero"><g fill="#007848" fill-rule="nonzero" stroke="none" stroke-width="1" stroke-linecap="butt" stroke-linejoin="miter" stroke-miterlimit="10" stroke-dasharray="" stroke-dashoffset="0" font-family="none" font-weight="none" font-size="none" text-anchor="none" style="mix-blend-mode: normal"><g transform="scale(10.66667,10.66667)"><path d="M12.305,13.736l-3.992,-3.438c-0.464,-0.397 -1.161,-0.397 -1.626,0l-3.992,3.438c-0.441,0.38 -0.695,0.933 -0.695,1.515v3.749c0,0.552 0.448,1 1,1h1c0.552,0 1,-0.448 1,-1v-2c0,-0.552 0.448,-1 1,-1v0c0.552,0 1,0.448 1,1v2c0,0.552 0.448,1 1,1h4c0.552,0 1,-0.448 1,-1v-3.749c0,-0.582 -0.254,-1.135 -0.695,-1.515zM10,17c-0.552,0 -1,-0.448 -1,-1c0,-0.552 0.448,-1 1,-1c0.552,0 1,0.448 1,1c0,0.552 -0.448,1 -1,1z"></path><path d="M21.242,6.969l-4.355,-3.653c-0.507,-0.422 -1.267,-0.422 -1.773,0l-4.531,3.801c-0.37,0.309 -0.583,0.766 -0.583,1.248c0,0.474 0.207,0.925 0.566,1.234l3.045,2.622c0.882,0.759 1.389,1.866 1.389,3.03v3.749c0,0.552 0.448,1 1,1h4.909c0.603,0 1.091,-0.476 1.091,-1.062v-10.344c0,-0.627 -0.278,-1.222 -0.758,-1.625zM14,10c-0.552,0 -1,-0.448 -1,-1c0,-0.552 0.448,-1 1,-1c0.552,0 1,0.448 1,1c0,0.552 -0.448,1 -1,1zM18,18c-0.552,0 -1,-0.448 -1,-1c0,-0.552 0.448,-1 1,-1c0.552,0 1,0.448 1,1c0,0.552 -0.448,1 -1,1zM18,14c-0.552,0 -1,-0.448 -1,-1c0,-0.552 0.448,-1 1,-1c0.552,0 1,0.448 1,1c0,0.552 -0.448,1 -1,1zM18,10c-0.552,0 -1,-0.448 -1,-1c0,-0.552 0.448,-1 1,-1c0.552,0 1,0.448 1,1c0,0.552 -0.448,1 -1,1z"></path></g></g></svg>