<?xml version="1.0" encoding="utf-8"?>
<!-- Generator: Adobe Illustrator 28.2.0, SVG Export Plug-In . SVG Version: 6.00 Build 0)  -->
<svg version="1.1" id="Layer_1" xmlns="http://www.w3.org/2000/svg" xmlns:xlink="http://www.w3.org/1999/xlink" x="0px" y="0px"
	 viewBox="0 0 512 512" style="enable-background:new 0 0 512 512;" xml:space="preserve">
<style type="text/css">
	.st0{fill:#58B571;}
	.st1{fill:#017848;}
	.st2{fill:#FFFFFF;}
</style>
<rect x="0" y="0" class="st0" width="512" height="512"/>
<path class="st1" d="M256,102.3v92.68c0,2.67,1.52,5.11,3.92,6.28l67.66,33.16v17.82c0,37.71-28.61,70.06-66.23,72.79
	c-41.94,3.04-76.92-30.08-76.92-71.38V143.63c0-5.38-5.83-8.75-10.49-6.06l-77.69,44.86c-2.16,1.25-3.5,3.56-3.5,6.06v64.96
	c0,90.16,73.09,163.26,163.26,163.26h0c90.16,0,163.26-73.09,163.26-163.26v-64.96c0-2.5-1.33-4.81-3.5-6.06L266.49,96.25
	C261.83,93.55,256,96.92,256,102.3z"/>
</svg>
