<?xml version="1.0" encoding="utf-8"?>
<!-- Generator: Adobe Illustrator 28.2.0, SVG Export Plug-In . SVG Version: 6.00 Build 0)  -->
<svg version="1.1" id="Layer_1" xmlns="http://www.w3.org/2000/svg" xmlns:xlink="http://www.w3.org/1999/xlink" x="0px" y="0px"
	 viewBox="0 0 1080 1080" style="enable-background:new 0 0 1080 1080;" xml:space="preserve">
<style type="text/css">
	.st0{fill:#017848;}
</style>
<path class="st0" d="M250.07,448.78l85.24,49.21c1.24,0.71,2,2.03,2,3.46v37.09c0,51.49-41.74,93.22-93.22,93.22h0
	c-51.49,0-93.23-41.74-93.23-93.22v-37.09c0-1.43,0.76-2.75,2-3.46l44.37-25.62c2.66-1.54,5.99,0.38,5.99,3.46v62.83
	c0,23.58,19.97,42.5,43.92,40.76c21.48-1.56,37.82-20.03,37.82-41.57v-10.17l-38.63-18.94c-1.37-0.67-2.24-2.06-2.24-3.59v-52.92
	C244.08,449.16,247.41,447.24,250.07,448.78z M417.42,518.95H403.9v25.99c0,9.67-2.55,12.96-8.72,12.96c-5.85,0-7.52-4.46-7.52-9.85
	v-29.1h-13.51v31.81c0,12.11,6.35,18.16,16.3,18.16c6.24,0,10.55-1.86,13.45-6.77c0.08,1.71,0.18,4.32,0.37,5.63h13.25
	c-0.08-4.37-0.09-9.48-0.09-14.19V518.95z M424.97,567.78h13.52v-27.21c0-8.62,3.29-11.82,9.03-11.82c5.97,0,7.8,3.98,7.8,9.47
	v29.56h13.52v-31.07c0-12.27-6.37-18.9-16.18-18.9c-8.55,0-12.51,4.29-14.17,7.35c-0.07-1.57-0.25-4.96-0.52-6.22h-13.09
	c0.09,3.61,0.09,8.15,0.09,12.3V567.78z M476.11,551.82c0,5.29,0,10.67-0.09,15.97h12.93c0.26-1.24,0.52-3.02,0.52-4.63
	c2.37,3.55,5.57,5.76,12.83,5.76c14.04,0,21.23-12.43,21.23-26.42c0-13.7-6.63-24.68-19.92-24.68c-7.92,0-11.96,3.18-13.97,6.32
	v-25.22h-13.52V551.82z M499.33,558.17c-7.88,0-10.31-6.32-10.31-14.54c0-9.95,2.74-14.98,10.46-14.98c7.3,0,10.33,5.97,10.33,14.11
	C509.81,551.99,506.2,558.17,499.33,558.17z M528.1,510.97h13.52v-12.06H528.1V510.97z M528.1,567.78h13.52v-48.83H528.1V567.78z
	 M589.16,534.63c0-11.62-7.12-16.73-20.2-16.82c-14.85-0.08-20.21,6.94-20.95,15.62h12.86c0.62-3.54,1.87-5.96,7.58-5.96
	c6.27,0,7.52,3.41,7.52,6.89v2.98c-1.64,0-4.58,0-6.97,0c-14.32,0-23.25,5.13-23.25,16.26c0,7.57,4.97,15.31,16.74,15.31
	c8.64,0,11.96-3.16,13.73-5.9c0.02,1.23,0.31,3.81,0.68,4.77h12.92c-0.28-1.18-0.66-7.97-0.66-12.62V534.63z M575.99,546.83
	c0,6.45-1.06,12.42-9.65,12.42c-4.86,0-7.03-2.98-7.03-6.51c0-4.71,3.02-7.2,11.17-7.2c1.78,0,4.38,0,5.51,0V546.83z M592.52,553.1
	c1.07,8.66,7.19,15.81,22.02,15.81c14.89,0,21.04-7.36,21.04-15.45c0-7.16-2.31-12.74-18.6-16.53c-7.93-1.85-9.45-3.02-9.45-5.45
	c0-2.2,1.45-4.18,5.92-4.18c6.36,0,7.56,3.41,8,5.21h12.86c-0.42-6.62-5.43-14.7-20.25-14.7c-14.73,0-19.8,7.62-19.8,14.79
	c0,6.89,2.6,11.82,18.51,15.74c7,1.72,9.09,2.95,9.09,6.08c0,2.96-1.82,4.75-6.81,4.75c-5.04,0-8.22-2.18-9.24-6.07H592.52z
	 M667.98,567.78v-69.19h-9.26v69.19H667.98z M716.5,545.54c0.14-1.31,0.14-2.5,0.14-4c0-10.58-5.18-22.92-20.87-22.92
	c-14.76,0-22.06,11.26-22.06,25.7c0,12.41,6.3,24.6,21.54,24.6c13.53,0,18.71-8.49,20.56-14.59h-9.31
	c-1.48,3.4-3.77,6.98-10.97,6.98c-7.86,0-12.4-6.73-12.45-15.77H716.5z M683.35,539.24c0.78-7.89,4.27-13.48,12.32-13.48
	c7.87,0,11.51,6.03,11.6,13.48H683.35z M722.34,567.78h9.26V542.1c0-9.43,3.57-15.59,11.97-15.59c7.05,0,9.68,4.7,9.68,11.6v29.68
	h9.26v-30.83c0-12.63-6.9-18.34-16.02-18.34c-9.12,0-13.03,4.77-14.89,8.68c0.01-1.45-0.13-6.17-0.36-7.55h-9
	c0.09,3.69,0.09,7.95,0.09,12.1V567.78z M802.94,498.59v25.86c-1.24-2.59-5.02-5.83-13.21-5.83c-13.35,0-21.54,10.84-21.54,25.63
	c0,14.71,7.62,24.67,19.92,24.67c7.74,0,12.46-2.83,14.82-7.6c0.04,1.71,0.22,5.16,0.46,6.47h8.9c-0.09-4.59-0.09-9.01-0.09-13.5
	v-55.69H802.94z M790.87,526.36c10.4,0,12.43,6.64,12.43,16.84c0,9.83-2.2,17.99-13.02,17.99c-7.34,0-12.5-6.04-12.5-17.21
	C777.78,532.82,782.69,526.36,790.87,526.36z M821.17,509.25h9.26v-10.65h-9.26V509.25z M821.17,567.78h9.26v-48.03h-9.26V567.78z
	 M839.52,567.78h9.26V542.1c0-9.43,3.57-15.59,11.97-15.59c7.05,0,9.68,4.7,9.68,11.6v29.68h9.26v-30.83
	c0-12.63-6.9-18.34-16.02-18.34c-9.12,0-13.03,4.77-14.89,8.68c0.01-1.45-0.13-6.17-0.36-7.55h-9c0.09,3.69,0.09,7.95,0.09,12.1
	V567.78z M929,533.6c0-4.61,0.1-10.78,0.15-13.85h-8.76c-0.09,0.96-0.32,4.09-0.41,6.1c-1.02-3-4.83-7.23-13.81-7.23
	c-11.69,0-20.79,9.68-20.79,25.23c0,13.85,7.89,23.63,19.87,23.63c7.86,0,12.18-2.96,14.73-8.11v3.58c0,10.74-2.5,17.33-12.96,17.33
	c-5.98,0-9.86-2.68-11.17-7.57h-9.44c0.79,6.31,5.07,14.79,20.21,14.79c16.17,0,22.39-8.95,22.39-24.35V533.6z M907.75,526.36
	c9.91,0,12.48,6.24,12.48,16.51c0,10.16-2.86,16.84-12.76,16.84c-7.47,0-12.51-6.48-12.51-16.25
	C894.96,533.21,899.48,526.36,907.75,526.36z"/>
</svg>
